<svg width="179" height="30" viewBox="0 0 179 30" fill="none" xmlns="http://www.w3.org/2000/svg">
<path d="M14.2094 5.81152C14.6523 4.44824 16.581 4.44824 17.024 5.81153L18.6066 10.6825C18.8047 11.2921 19.3729 11.7049 20.0139 11.7049H25.1355C26.569 11.7049 27.165 13.5392 26.0053 14.3818L21.8618 17.3922C21.3432 17.769 21.1262 18.4369 21.3243 19.0466L22.907 23.9175C23.3499 25.2808 21.7896 26.4144 20.6299 25.5719L16.4864 22.5615C15.9678 22.1847 15.2655 22.1847 14.7469 22.5615L10.6034 25.5719C9.44376 26.4144 7.88342 25.2808 8.32638 23.9175L9.90905 19.0466C10.1071 18.4369 9.89013 17.769 9.37151 17.3922L5.22803 14.3818C4.06836 13.5392 4.66435 11.7049 6.09779 11.7049H11.2194C11.8605 11.7049 12.4286 11.2921 12.6267 10.6825L14.2094 5.81152Z" fill="#FDF8F1"/>
<path d="M51.2992 5.81152C51.7422 4.44824 53.6709 4.44824 54.1138 5.81153L55.6965 10.6825C55.8946 11.2921 56.4627 11.7049 57.1038 11.7049H62.2254C63.6588 11.7049 64.2548 13.5392 63.0951 14.3818L58.9517 17.3922C58.4331 17.769 58.216 18.4369 58.4141 19.0466L59.9968 23.9175C60.4398 25.2808 58.8794 26.4144 57.7197 25.5719L53.5763 22.5615C53.0576 22.1847 52.3554 22.1847 51.8368 22.5615L47.6933 25.5719C46.5336 26.4144 44.9733 25.2808 45.4162 23.9175L46.9989 19.0466C47.197 18.4369 46.98 17.769 46.4613 17.3922L42.3179 14.3818C41.1582 13.5392 41.7542 11.7049 43.1876 11.7049H48.3093C48.9503 11.7049 49.5185 11.2921 49.7165 10.6825L51.2992 5.81152Z" fill="#FDF8F1"/>
<path d="M88.3891 5.81152C88.832 4.44824 90.7607 4.44824 91.2037 5.81153L92.7863 10.6825C92.9844 11.2921 93.5526 11.7049 94.1936 11.7049H99.3152C100.749 11.7049 101.345 13.5392 100.185 14.3818L96.0415 17.3922C95.5229 17.769 95.3059 18.4369 95.504 19.0466L97.0866 23.9175C97.5296 25.2808 95.9693 26.4144 94.8096 25.5719L90.6661 22.5615C90.1475 22.1847 89.4452 22.1847 88.9266 22.5615L84.7831 25.5719C83.6234 26.4144 82.0631 25.2808 82.5061 23.9175L84.0887 19.0466C84.2868 18.4369 84.0698 17.769 83.5512 17.3922L79.4077 14.3818C78.248 13.5392 78.844 11.7049 80.2775 11.7049H85.3991C86.0401 11.7049 86.6083 11.2921 86.8064 10.6825L88.3891 5.81152Z" fill="#FDF8F1"/>
<path d="M125.479 5.81152C125.922 4.44824 127.851 4.44824 128.294 5.81153L129.876 10.6825C130.074 11.2921 130.642 11.7049 131.283 11.7049H136.405C137.839 11.7049 138.435 13.5392 137.275 14.3818L133.131 17.3922C132.613 17.769 132.396 18.4369 132.594 19.0466L134.176 23.9175C134.619 25.2808 133.059 26.4144 131.899 25.5719L127.756 22.5615C127.237 22.1847 126.535 22.1847 126.016 22.5615L121.873 25.5719C120.713 26.4144 119.153 25.2808 119.596 23.9175L121.179 19.0466C121.377 18.4369 121.16 17.769 120.641 17.3922L116.498 14.3818C115.338 13.5392 115.934 11.7049 117.367 11.7049H122.489C123.13 11.7049 123.698 11.2921 123.896 10.6825L125.479 5.81152Z" fill="#FDF8F1"/>
<path d="M162.571 5.81152C163.014 4.44824 164.942 4.44824 165.385 5.81153L166.968 10.6825C167.166 11.2921 167.734 11.7049 168.375 11.7049H173.497C174.93 11.7049 175.526 13.5392 174.367 14.3818L170.223 17.3922C169.705 17.769 169.488 18.4369 169.686 19.0466L171.268 23.9175C171.711 25.2808 170.151 26.4144 168.991 25.5719L164.848 22.5615C164.329 22.1847 163.627 22.1847 163.108 22.5615L158.965 25.5719C157.805 26.4144 156.245 25.2808 156.688 23.9175L158.27 19.0466C158.468 18.4369 158.251 17.769 157.733 17.3922L153.589 14.3818C152.43 13.5392 153.026 11.7049 154.459 11.7049H159.581C160.222 11.7049 160.79 11.2921 160.988 10.6825L162.571 5.81152Z" fill="#FDF8F1"/>
</svg>
