<svg width="42" height="42" viewBox="0 0 42 42" fill="none" xmlns="http://www.w3.org/2000/svg">
<path d="M12.4922 33.9109C13.8341 33.6988 15.8291 32.0839 17.0198 31.9306C17.4272 31.8781 18.9413 32.4703 19.5902 32.5774C27.8075 33.9256 34.853 25.9813 32.1335 18.0202C31.6064 16.4767 31.1045 15.9223 29.5673 16.8379C25.8461 19.0492 22.0178 22.6948 18.3281 25.1896C18.116 25.3324 17.6897 25.8238 17.4356 25.5802L40.6889 2.23242L37.2995 7.53912C33.9437 14.1184 37.5641 17.5708 36.638 23.7217C34.9265 35.0995 21.7868 40.7107 12.4943 33.9109H12.4922Z" fill="#006B69"/>
<path d="M30.2517 9.00481C29.0841 9.20431 26.898 10.8528 25.9068 10.9872C25.4637 11.046 23.6766 10.3488 22.8429 10.2816C12.0888 9.42901 5.84763 21.2709 13.2165 29.2383L1.32423 39.7677C1.24653 39.4254 1.51743 39.333 1.68963 39.1272C3.31083 37.1952 5.40033 35.5719 6.66453 33.2997C9.07953 28.9611 6.50913 27.5499 6.10593 23.541C4.97403 12.2724 14.8419 3.57211 25.8585 6.72001C27.3621 7.15051 29.1723 7.89601 30.2538 9.00481H30.2517Z" fill="#006B69"/>
</svg>
