<svg width="46" height="46" viewBox="0 0 46 46" fill="none" xmlns="http://www.w3.org/2000/svg">
<path d="M24.1883 1.05811V12.5144L36.7256 1.27431V14.244H41.9144V33.0511H36.7256V44.7236L24.1883 33.9159V44.9398H21.8101V34.1321L9.27278 44.7236V33.0511H4.08398V14.2463H9.27278V1.27431L21.8101 12.5144V1.05811H24.1883ZM11.651 6.67931V14.244H19.8643L11.651 6.67931ZM34.3474 14.2463V6.67931L26.1341 14.244H34.3474V14.2463ZM19.8643 16.6222H6.46218V30.3486C7.14988 30.9972 8.37578 30.5487 9.27278 30.6729V26.2408L19.8643 16.6222ZM39.5362 16.6222H26.3503L36.7256 26.2408V30.6729C37.6226 30.5487 38.8485 30.9972 39.5362 30.3486V16.6222ZM21.8101 18.3518L21.1592 18.6738L11.6487 27.3218V39.3186C12.1708 39.2151 12.7573 38.6907 13.1644 38.348C16.1245 35.8663 18.9075 33.1178 21.8078 30.5625V18.3495L21.8101 18.3518ZM24.1883 18.3518V30.5648L34.3474 39.3186V27.3218L24.8369 18.6738L24.186 18.3518H24.1883Z" fill="#006B69"/>
</svg>
